<svg width="95" height="24" viewBox="0 0 95 24" fill="none" xmlns="http://www.w3.org/2000/svg">
<path d="M36.8438 9.59375C36.8438 10.1615 36.6927 10.6667 36.3906 11.1094C36.0938 11.5521 35.6901 11.8984 35.1797 12.1484C35.7734 12.4036 36.2422 12.776 36.5859 13.2656C36.9349 13.7552 37.1094 14.3099 37.1094 14.9297C37.1094 15.9141 36.776 16.6979 36.1094 17.2812C35.4479 17.8646 34.5755 18.1562 33.4922 18.1562C32.3984 18.1562 31.5208 17.8646 30.8594 17.2812C30.2031 16.6927 29.875 15.9089 29.875 14.9297C29.875 14.3151 30.0417 13.7604 30.375 13.2656C30.7135 12.7708 31.1797 12.3958 31.7734 12.1406C31.2682 11.8906 30.8698 11.5443 30.5781 11.1016C30.2865 10.6589 30.1406 10.1562 30.1406 9.59375C30.1406 8.63542 30.4479 7.875 31.0625 7.3125C31.6771 6.75 32.487 6.46875 33.4922 6.46875C34.4922 6.46875 35.2995 6.75 35.9141 7.3125C36.5339 7.875 36.8438 8.63542 36.8438 9.59375ZM35.6641 14.8984C35.6641 14.263 35.4609 13.7448 35.0547 13.3438C34.6536 12.9427 34.1276 12.7422 33.4766 12.7422C32.8255 12.7422 32.3021 12.9401 31.9062 13.3359C31.5156 13.7318 31.3203 14.2526 31.3203 14.8984C31.3203 15.5443 31.5104 16.0521 31.8906 16.4219C32.276 16.7917 32.8099 16.9766 33.4922 16.9766C34.1693 16.9766 34.7005 16.7917 35.0859 16.4219C35.4714 16.0469 35.6641 15.5391 35.6641 14.8984ZM33.4922 7.65625C32.9245 7.65625 32.4635 7.83333 32.1094 8.1875C31.7604 8.53646 31.5859 9.01302 31.5859 9.61719C31.5859 10.1953 31.7578 10.6641 32.1016 11.0234C32.4505 11.3776 32.9141 11.5547 33.4922 11.5547C34.0703 11.5547 34.5312 11.3776 34.875 11.0234C35.224 10.6641 35.3984 10.1953 35.3984 9.61719C35.3984 9.03906 35.2188 8.56771 34.8594 8.20312C34.5 7.83854 34.0443 7.65625 33.4922 7.65625ZM46.0625 13.1484C46.0625 14.8411 45.7734 16.099 45.1953 16.9219C44.6172 17.7448 43.7135 18.1562 42.4844 18.1562C41.2708 18.1562 40.3724 17.7552 39.7891 16.9531C39.2057 16.1458 38.9036 14.9427 38.8828 13.3438V11.4141C38.8828 9.74219 39.1719 8.5 39.75 7.6875C40.3281 6.875 41.2344 6.46875 42.4688 6.46875C43.6927 6.46875 44.5938 6.86198 45.1719 7.64844C45.75 8.42969 46.0469 9.63802 46.0625 11.2734V13.1484ZM44.6172 11.1719C44.6172 9.94792 44.4453 9.05729 44.1016 8.5C43.7578 7.9375 43.2135 7.65625 42.4688 7.65625C41.7292 7.65625 41.1901 7.9349 40.8516 8.49219C40.513 9.04948 40.3385 9.90625 40.3281 11.0625V13.375C40.3281 14.6042 40.5052 15.513 40.8594 16.1016C41.2188 16.6849 41.7604 16.9766 42.4844 16.9766C43.1979 16.9766 43.7266 16.7005 44.0703 16.1484C44.4193 15.5964 44.6016 14.7266 44.6172 13.5391V11.1719ZM58.4141 18H56.9609V14.9375C56.3255 15.1042 55.6745 15.1875 55.0078 15.1875C53.9505 15.1875 53.1432 14.9167 52.5859 14.375C52.0339 13.8333 51.7526 13.0625 51.7422 12.0625V9.53906H53.1875V12.1094C53.2135 13.3698 53.8203 14 55.0078 14C55.6745 14 56.3255 13.9167 56.9609 13.75V9.54688H58.4141V18ZM65.9531 18C65.8698 17.8333 65.8021 17.5365 65.75 17.1094C65.0781 17.8073 64.276 18.1562 63.3438 18.1562C62.5104 18.1562 61.8255 17.9219 61.2891 17.4531C60.7578 16.9792 60.4922 16.3802 60.4922 15.6562C60.4922 14.776 60.8255 14.0938 61.4922 13.6094C62.1641 13.1198 63.1068 12.875 64.3203 12.875H65.7266V12.2109C65.7266 11.7057 65.5755 11.3047 65.2734 11.0078C64.9714 10.7057 64.526 10.5547 63.9375 10.5547C63.4219 10.5547 62.9896 10.6849 62.6406 10.9453C62.2917 11.2057 62.1172 11.5208 62.1172 11.8906H60.6641C60.6641 11.4688 60.8125 11.0625 61.1094 10.6719C61.4115 10.276 61.8177 9.96354 62.3281 9.73438C62.8438 9.50521 63.4089 9.39062 64.0234 9.39062C64.9974 9.39062 65.7604 9.63542 66.3125 10.125C66.8646 10.6094 67.151 11.2786 67.1719 12.1328V16.0234C67.1719 16.7995 67.2708 17.4167 67.4688 17.875V18H65.9531ZM63.5547 16.8984C64.0078 16.8984 64.4375 16.7812 64.8438 16.5469C65.25 16.3125 65.5443 16.0078 65.7266 15.6328V13.8984H64.5938C62.8229 13.8984 61.9375 14.4167 61.9375 15.4531C61.9375 15.9062 62.0885 16.2604 62.3906 16.5156C62.6927 16.7708 63.0807 16.8984 63.5547 16.8984ZM72.8281 16.9766C73.3438 16.9766 73.7943 16.8203 74.1797 16.5078C74.5651 16.1953 74.7786 15.8047 74.8203 15.3359H76.1875C76.1615 15.8203 75.9948 16.2812 75.6875 16.7188C75.3802 17.1562 74.9688 17.5052 74.4531 17.7656C73.9427 18.026 73.401 18.1562 72.8281 18.1562C71.6771 18.1562 70.7604 17.7734 70.0781 17.0078C69.401 16.237 69.0625 15.1849 69.0625 13.8516V13.6094C69.0625 12.7865 69.2135 12.0547 69.5156 11.4141C69.8177 10.7734 70.25 10.276 70.8125 9.92188C71.3802 9.56771 72.0495 9.39062 72.8203 9.39062C73.7682 9.39062 74.5547 9.67448 75.1797 10.2422C75.8099 10.8099 76.1458 11.5469 76.1875 12.4531H74.8203C74.7786 11.9062 74.5703 11.4583 74.1953 11.1094C73.8255 10.7552 73.3672 10.5781 72.8203 10.5781C72.0859 10.5781 71.5156 10.8438 71.1094 11.375C70.7083 11.901 70.5078 12.6641 70.5078 13.6641V13.9375C70.5078 14.9115 70.7083 15.6615 71.1094 16.1875C71.5104 16.7135 72.0833 16.9766 72.8281 16.9766ZM77.4297 13.6953C77.4297 12.8672 77.5911 12.1224 77.9141 11.4609C78.2422 10.7995 78.6953 10.2891 79.2734 9.92969C79.8568 9.57031 80.5208 9.39062 81.2656 9.39062C82.4167 9.39062 83.3464 9.78906 84.0547 10.5859C84.7682 11.3828 85.125 12.4427 85.125 13.7656V13.8672C85.125 14.6901 84.9661 15.4297 84.6484 16.0859C84.3359 16.737 83.8854 17.2448 83.2969 17.6094C82.7135 17.974 82.0417 18.1562 81.2812 18.1562C80.1354 18.1562 79.2057 17.7578 78.4922 16.9609C77.7839 16.1641 77.4297 15.1094 77.4297 13.7969V13.6953ZM78.8828 13.8672C78.8828 14.8047 79.099 15.5573 79.5312 16.125C79.9688 16.6927 80.5521 16.9766 81.2812 16.9766C82.0156 16.9766 82.599 16.6901 83.0312 16.1172C83.4635 15.5391 83.6797 14.7318 83.6797 13.6953C83.6797 12.7682 83.4583 12.0182 83.0156 11.4453C82.5781 10.8672 81.9948 10.5781 81.2656 10.5781C80.5521 10.5781 79.9766 10.862 79.5391 11.4297C79.1016 11.9974 78.8828 12.8099 78.8828 13.8672ZM87.0703 18V9.54688H90.3672C91.4922 9.54688 92.3542 9.74479 92.9531 10.1406C93.5573 10.5312 93.8594 11.1068 93.8594 11.8672C93.8594 12.2578 93.7422 12.612 93.5078 12.9297C93.2734 13.2422 92.9271 13.4818 92.4688 13.6484C92.9792 13.7682 93.388 14.0026 93.6953 14.3516C94.0078 14.7005 94.1641 15.1172 94.1641 15.6016C94.1641 16.3776 93.8776 16.9714 93.3047 17.3828C92.737 17.7943 91.9323 18 90.8906 18H87.0703ZM88.5156 14.2891V16.8359H90.9062C91.5104 16.8359 91.9609 16.724 92.2578 16.5C92.5599 16.276 92.7109 15.9609 92.7109 15.5547C92.7109 14.7109 92.0911 14.2891 90.8516 14.2891H88.5156ZM88.5156 13.1328H90.3828C91.737 13.1328 92.4141 12.737 92.4141 11.9453C92.4141 11.1536 91.7734 10.7448 90.4922 10.7188H88.5156V13.1328Z" fill="white"/>
<g clip-path="url(#clip0_51_36)">
<path d="M11.99 2C6.47 2 2 6.48 2 12C2 17.52 6.47 22 11.99 22C17.52 22 22 17.52 22 12C22 6.48 17.52 2 11.99 2ZM12 20C7.58 20 4 16.42 4 12C4 7.58 7.58 4 12 4C16.42 4 20 7.58 20 12C20 16.42 16.42 20 12 20Z" fill="white"/>
<path d="M12.5 7H11V13L16.25 16.15L17 14.92L12.5 12.25V7Z" fill="white"/>
</g>
<defs>
<clipPath id="clip0_51_36">
<rect width="24" height="24" fill="white"/>
</clipPath>
</defs>
</svg>
