<svg width="102" height="11" viewBox="0 0 102 11" fill="none" xmlns="http://www.w3.org/2000/svg">
<path d="M5.99854 7.66406C5.99854 7.44824 5.96468 7.25781 5.89697 7.09277C5.8335 6.9235 5.71924 6.77116 5.5542 6.63574C5.39339 6.50033 5.16911 6.37126 4.88135 6.24854C4.59782 6.12581 4.23812 6.00098 3.80225 5.87402C3.34521 5.73861 2.93262 5.58838 2.56445 5.42334C2.19629 5.25407 1.88102 5.06152 1.61865 4.8457C1.35628 4.62988 1.15527 4.38232 1.01562 4.10303C0.875977 3.82373 0.806152 3.50423 0.806152 3.14453C0.806152 2.78483 0.880208 2.45264 1.02832 2.14795C1.17643 1.84326 1.38802 1.57878 1.66309 1.35449C1.94238 1.12598 2.27458 0.948242 2.65967 0.821289C3.04476 0.694336 3.47428 0.630859 3.94824 0.630859C4.64225 0.630859 5.23047 0.76416 5.71289 1.03076C6.19954 1.29313 6.56982 1.63802 6.82373 2.06543C7.07764 2.48861 7.20459 2.94141 7.20459 3.42383H5.98584C5.98584 3.07682 5.91178 2.77002 5.76367 2.50342C5.61556 2.23258 5.39128 2.021 5.09082 1.86865C4.79036 1.71208 4.40951 1.63379 3.94824 1.63379C3.51237 1.63379 3.15267 1.69938 2.86914 1.83057C2.58561 1.96175 2.37402 2.13949 2.23438 2.36377C2.09896 2.58805 2.03125 2.84408 2.03125 3.13184C2.03125 3.3265 2.07145 3.50423 2.15186 3.66504C2.23649 3.82161 2.36556 3.96761 2.53906 4.10303C2.7168 4.23844 2.94108 4.36328 3.21191 4.47754C3.48698 4.5918 3.81494 4.70182 4.1958 4.80762C4.72054 4.95573 5.17334 5.12077 5.5542 5.30273C5.93506 5.4847 6.24821 5.68994 6.49365 5.91846C6.74333 6.14274 6.92741 6.39876 7.0459 6.68652C7.16862 6.97005 7.22998 7.29167 7.22998 7.65137C7.22998 8.02799 7.15381 8.36865 7.00146 8.67334C6.84912 8.97803 6.63118 9.23828 6.34766 9.4541C6.06413 9.66992 5.72347 9.83708 5.32568 9.95557C4.93213 10.0698 4.49202 10.127 4.00537 10.127C3.57796 10.127 3.1569 10.0677 2.74219 9.94922C2.33171 9.83073 1.95719 9.65299 1.61865 9.41602C1.28434 9.17904 1.01562 8.88704 0.8125 8.54004C0.613607 8.1888 0.51416 7.78255 0.51416 7.32129H1.73291C1.73291 7.63867 1.79427 7.91162 1.91699 8.14014C2.03971 8.36442 2.20687 8.55062 2.41846 8.69873C2.63428 8.84684 2.8776 8.95687 3.14844 9.02881C3.4235 9.09652 3.70915 9.13037 4.00537 9.13037C4.43278 9.13037 4.7946 9.07113 5.09082 8.95264C5.38704 8.83415 5.61133 8.66488 5.76367 8.44482C5.92025 8.22477 5.99854 7.96452 5.99854 7.66406ZM10.0166 0.757812V10H8.7915V0.757812H10.0166ZM15.5962 0.757812L11.7559 5.06787L9.59766 7.30859L9.39453 6.00098L11.0195 4.21094L14.1235 0.757812H15.5962ZM14.4155 10L10.9941 5.49316L11.7241 4.52197L15.8755 10H14.4155ZM18.2686 0.757812V10H17.0435V0.757812H18.2686ZM26.1016 9.00342V10H21.4805V9.00342H26.1016ZM21.7217 0.757812V10H20.4966V0.757812H21.7217ZM33.1094 9.00342V10H28.4883V9.00342H33.1094ZM28.7295 0.757812V10H27.5044V0.757812H28.7295ZM37.8066 5.67725H35.4644L35.4517 4.69336H37.5781C37.9294 4.69336 38.2362 4.63411 38.4985 4.51562C38.7609 4.39714 38.964 4.22786 39.1079 4.00781C39.256 3.78353 39.3301 3.51693 39.3301 3.20801C39.3301 2.86947 39.2645 2.5944 39.1333 2.38281C39.0063 2.16699 38.8096 2.01042 38.543 1.91309C38.2806 1.81152 37.9463 1.76074 37.54 1.76074H35.7373V10H34.5122V0.757812H37.54C38.014 0.757812 38.4372 0.806478 38.8096 0.903809C39.182 0.996908 39.4972 1.14502 39.7554 1.34814C40.0177 1.54704 40.2166 1.80094 40.3521 2.10986C40.4875 2.41878 40.5552 2.78906 40.5552 3.2207C40.5552 3.60156 40.4578 3.94645 40.2632 4.25537C40.0685 4.56006 39.7977 4.80973 39.4507 5.00439C39.1079 5.19906 38.7059 5.32389 38.2446 5.37891L37.8066 5.67725ZM37.7495 10H34.9819L35.6738 9.00342H37.7495C38.1388 9.00342 38.4689 8.93571 38.7397 8.80029C39.0148 8.66488 39.2243 8.47445 39.3682 8.229C39.512 7.97933 39.584 7.68522 39.584 7.34668C39.584 7.00391 39.5226 6.70768 39.3999 6.45801C39.2772 6.20833 39.0846 6.01579 38.8223 5.88037C38.5599 5.74495 38.2214 5.67725 37.8066 5.67725H36.061L36.0737 4.69336H38.4604L38.7207 5.04883C39.165 5.08691 39.5417 5.21387 39.8506 5.42969C40.1595 5.64128 40.3944 5.91211 40.5552 6.24219C40.7202 6.57227 40.8027 6.9362 40.8027 7.33398C40.8027 7.90951 40.6758 8.39616 40.4219 8.79395C40.1722 9.1875 39.8188 9.48796 39.3618 9.69531C38.9048 9.89844 38.3674 10 37.7495 10ZM49.7275 5.08691V5.6709C49.7275 6.36491 49.6408 6.98698 49.4673 7.53711C49.2938 8.08724 49.0441 8.55485 48.7183 8.93994C48.3924 9.32503 48.001 9.61914 47.5439 9.82227C47.0911 10.0254 46.5833 10.127 46.0205 10.127C45.4746 10.127 44.9731 10.0254 44.5161 9.82227C44.0633 9.61914 43.6698 9.32503 43.3354 8.93994C43.0054 8.55485 42.7493 8.08724 42.5674 7.53711C42.3854 6.98698 42.2944 6.36491 42.2944 5.6709V5.08691C42.2944 4.3929 42.3833 3.77295 42.561 3.22705C42.743 2.67692 42.999 2.20931 43.3291 1.82422C43.6592 1.4349 44.0506 1.13867 44.5034 0.935547C44.9604 0.732422 45.4619 0.630859 46.0078 0.630859C46.5706 0.630859 47.0785 0.732422 47.5312 0.935547C47.9883 1.13867 48.3797 1.4349 48.7056 1.82422C49.0356 2.20931 49.2874 2.67692 49.4609 3.22705C49.6387 3.77295 49.7275 4.3929 49.7275 5.08691ZM48.5151 5.6709V5.07422C48.5151 4.52409 48.458 4.03743 48.3438 3.61426C48.2337 3.19108 48.0708 2.83561 47.855 2.54785C47.6392 2.26009 47.3747 2.04215 47.0615 1.89404C46.7526 1.74593 46.4014 1.67188 46.0078 1.67188C45.627 1.67188 45.2821 1.74593 44.9731 1.89404C44.6685 2.04215 44.4061 2.26009 44.186 2.54785C43.9702 2.83561 43.8031 3.19108 43.6846 3.61426C43.5661 4.03743 43.5068 4.52409 43.5068 5.07422V5.6709C43.5068 6.22526 43.5661 6.71615 43.6846 7.14355C43.8031 7.56673 43.9723 7.92432 44.1924 8.21631C44.4167 8.50407 44.6812 8.72201 44.9858 8.87012C45.2948 9.01823 45.6396 9.09229 46.0205 9.09229C46.4183 9.09229 46.7716 9.01823 47.0806 8.87012C47.3895 8.72201 47.6497 8.50407 47.8613 8.21631C48.0771 7.92432 48.2401 7.56673 48.3501 7.14355C48.4601 6.71615 48.5151 6.22526 48.5151 5.6709ZM52.2158 0.757812L54.4375 4.2998L56.6592 0.757812H58.0874L55.1675 5.33447L58.1572 10H56.7163L54.4375 6.38818L52.1587 10H50.7178L53.7075 5.33447L50.7876 0.757812H52.2158ZM81.9927 9.03516V10H75.9434V9.15576L78.9712 5.78516C79.3436 5.37044 79.6313 5.01921 79.8345 4.73145C80.0418 4.43945 80.1857 4.1792 80.2661 3.95068C80.3507 3.71794 80.3931 3.48096 80.3931 3.23975C80.3931 2.93506 80.3296 2.65999 80.2026 2.41455C80.0799 2.16488 79.8979 1.96598 79.6567 1.81787C79.4155 1.66976 79.1235 1.5957 78.7808 1.5957C78.3703 1.5957 78.0275 1.67611 77.7524 1.83691C77.4816 1.99349 77.2785 2.21354 77.1431 2.49707C77.0076 2.7806 76.9399 3.10645 76.9399 3.47461H75.7656C75.7656 2.9541 75.8799 2.47803 76.1084 2.04639C76.3369 1.61475 76.6755 1.27197 77.124 1.01807C77.5726 0.759928 78.1248 0.630859 78.7808 0.630859C79.3647 0.630859 79.8641 0.734538 80.2788 0.941895C80.6935 1.14502 81.0109 1.43278 81.231 1.80518C81.4552 2.17334 81.5674 2.60498 81.5674 3.1001C81.5674 3.37093 81.5208 3.646 81.4277 3.92529C81.3389 4.20036 81.214 4.47542 81.0532 4.75049C80.8966 5.02555 80.7126 5.29639 80.501 5.56299C80.2936 5.82959 80.0715 6.09196 79.8345 6.3501L77.3589 9.03516H81.9927ZM89.0513 4.64258V6.05176C89.0513 6.80924 88.9836 7.44824 88.8481 7.96875C88.7127 8.48926 88.5181 8.9082 88.2642 9.22559C88.0103 9.54297 87.7035 9.7736 87.3438 9.91748C86.9883 10.0571 86.5863 10.127 86.1377 10.127C85.7822 10.127 85.4543 10.0825 85.1538 9.99365C84.8534 9.90479 84.5825 9.76302 84.3413 9.56836C84.1043 9.36947 83.9012 9.11133 83.7319 8.79395C83.5627 8.47656 83.4336 8.09147 83.3447 7.63867C83.2559 7.18587 83.2114 6.6569 83.2114 6.05176V4.64258C83.2114 3.88509 83.2791 3.25033 83.4146 2.73828C83.5542 2.22624 83.751 1.81576 84.0049 1.50684C84.2588 1.19368 84.5635 0.969401 84.9189 0.833984C85.2786 0.698568 85.6807 0.630859 86.125 0.630859C86.4847 0.630859 86.8148 0.675293 87.1152 0.76416C87.4199 0.848796 87.6908 0.986328 87.9277 1.17676C88.1647 1.36296 88.3657 1.61263 88.5308 1.92578C88.7 2.2347 88.8291 2.61344 88.918 3.06201C89.0068 3.51058 89.0513 4.03743 89.0513 4.64258ZM87.8706 6.24219V4.4458C87.8706 4.03109 87.8452 3.66715 87.7944 3.354C87.7479 3.03662 87.6781 2.76579 87.585 2.5415C87.4919 2.31722 87.3734 2.13525 87.2295 1.99561C87.0898 1.85596 86.9269 1.75439 86.7407 1.69092C86.5588 1.62321 86.3535 1.58936 86.125 1.58936C85.8457 1.58936 85.5981 1.64225 85.3823 1.74805C85.1665 1.84961 84.9845 2.01253 84.8364 2.23682C84.6925 2.4611 84.5825 2.75521 84.5063 3.11914C84.4302 3.48307 84.3921 3.92529 84.3921 4.4458V6.24219C84.3921 6.6569 84.4154 7.02295 84.4619 7.34033C84.5127 7.65771 84.5868 7.93278 84.6841 8.16553C84.7814 8.39404 84.8999 8.58236 85.0396 8.73047C85.1792 8.87858 85.34 8.98861 85.522 9.06055C85.7082 9.12826 85.9134 9.16211 86.1377 9.16211C86.4255 9.16211 86.6772 9.1071 86.8931 8.99707C87.1089 8.88704 87.2887 8.71566 87.4326 8.48291C87.5807 8.24593 87.6908 7.94336 87.7627 7.5752C87.8346 7.2028 87.8706 6.75846 87.8706 6.24219ZM96.6177 9.03516V10H90.5684V9.15576L93.5962 5.78516C93.9686 5.37044 94.2563 5.01921 94.4595 4.73145C94.6668 4.43945 94.8107 4.1792 94.8911 3.95068C94.9757 3.71794 95.0181 3.48096 95.0181 3.23975C95.0181 2.93506 94.9546 2.65999 94.8276 2.41455C94.7049 2.16488 94.5229 1.96598 94.2817 1.81787C94.0405 1.66976 93.7485 1.5957 93.4058 1.5957C92.9953 1.5957 92.6525 1.67611 92.3774 1.83691C92.1066 1.99349 91.9035 2.21354 91.7681 2.49707C91.6326 2.7806 91.5649 3.10645 91.5649 3.47461H90.3906C90.3906 2.9541 90.5049 2.47803 90.7334 2.04639C90.9619 1.61475 91.3005 1.27197 91.749 1.01807C92.1976 0.759928 92.7498 0.630859 93.4058 0.630859C93.9897 0.630859 94.4891 0.734538 94.9038 0.941895C95.3185 1.14502 95.6359 1.43278 95.856 1.80518C96.0802 2.17334 96.1924 2.60498 96.1924 3.1001C96.1924 3.37093 96.1458 3.646 96.0527 3.92529C95.9639 4.20036 95.839 4.47542 95.6782 4.75049C95.5216 5.02555 95.3376 5.29639 95.126 5.56299C94.9186 5.82959 94.6965 6.09196 94.4595 6.3501L91.9839 9.03516H96.6177ZM101.734 0.707031V10H100.56V2.17334L98.1919 3.03662V1.97656L101.55 0.707031H101.734Z" fill="#2E2B44"/>
<path d="M66.9741 5.84229H65.5903L65.5776 5.02979H66.8662C67.0439 5.02555 67.209 4.99382 67.3613 4.93457C67.5179 4.87533 67.6427 4.79069 67.7358 4.68066C67.8332 4.56641 67.8818 4.42676 67.8818 4.26172C67.8818 4.05013 67.8459 3.88298 67.7739 3.76025C67.702 3.63753 67.5814 3.54867 67.4121 3.49365C67.2471 3.43864 67.0207 3.41113 66.7329 3.41113H65.8696V7.98779H64.9746V2.60498H66.7329C67.1519 2.60498 67.5137 2.66423 67.8184 2.78271C68.123 2.9012 68.3579 3.08105 68.5229 3.32227C68.688 3.55924 68.7705 3.8597 68.7705 4.22363C68.7705 4.45215 68.7176 4.65739 68.6118 4.83936C68.506 5.02132 68.3516 5.1779 68.1484 5.30908C67.9453 5.44027 67.6978 5.54606 67.4058 5.62646C67.3931 5.62646 67.3783 5.64128 67.3613 5.6709C67.3486 5.69629 67.3359 5.70898 67.3232 5.70898C67.2513 5.7513 67.2048 5.78304 67.1836 5.8042C67.1667 5.82113 67.1476 5.83171 67.1265 5.83594C67.1095 5.84017 67.0588 5.84229 66.9741 5.84229ZM66.9106 5.84229L67.0376 5.271C67.6935 5.271 68.14 5.41064 68.377 5.68994C68.6182 5.96501 68.7388 6.31413 68.7388 6.7373V7.08008C68.7388 7.23665 68.7472 7.38688 68.7642 7.53076C68.7811 7.67041 68.8086 7.7889 68.8467 7.88623V7.98779H67.9263C67.884 7.87777 67.8586 7.72119 67.8501 7.51807C67.8459 7.31494 67.8438 7.16683 67.8438 7.07373V6.74365C67.8438 6.43473 67.7718 6.20833 67.6279 6.06445C67.4883 5.91634 67.2492 5.84229 66.9106 5.84229ZM63.0322 5.37256C63.0322 5.93538 63.1296 6.46012 63.3242 6.94678C63.5189 7.43343 63.7897 7.85872 64.1367 8.22266C64.4837 8.58659 64.8857 8.87012 65.3428 9.07324C65.7998 9.27637 66.2886 9.37793 66.8091 9.37793C67.3296 9.37793 67.8162 9.27637 68.269 9.07324C68.7261 8.87012 69.126 8.58659 69.4688 8.22266C69.8158 7.85872 70.0866 7.43343 70.2812 6.94678C70.4759 6.46012 70.5732 5.93538 70.5732 5.37256C70.5732 4.8055 70.4759 4.28076 70.2812 3.79834C70.0866 3.31592 69.8158 2.89486 69.4688 2.53516C69.126 2.17122 68.7261 1.88981 68.269 1.69092C67.8162 1.48779 67.3296 1.38623 66.8091 1.38623C66.2886 1.38623 65.7998 1.48779 65.3428 1.69092C64.8857 1.88981 64.4837 2.17122 64.1367 2.53516C63.7897 2.89486 63.5189 3.31592 63.3242 3.79834C63.1296 4.28076 63.0322 4.8055 63.0322 5.37256ZM62.3022 5.37256C62.3022 4.69971 62.4186 4.07552 62.6514 3.5C62.8841 2.92448 63.2078 2.42301 63.6226 1.99561C64.0373 1.56396 64.5155 1.22965 65.0571 0.992676C65.603 0.751465 66.187 0.630859 66.8091 0.630859C67.4312 0.630859 68.013 0.751465 68.5547 0.992676C69.1006 1.22965 69.5788 1.56396 69.9893 1.99561C70.404 2.42301 70.7277 2.92448 70.9604 3.5C71.1932 4.07552 71.3096 4.69971 71.3096 5.37256C71.3096 6.04541 71.1932 6.6696 70.9604 7.24512C70.7277 7.82064 70.404 8.32633 69.9893 8.76221C69.5788 9.19385 69.1006 9.53027 68.5547 9.77148C68.013 10.0127 67.4312 10.1333 66.8091 10.1333C66.187 10.1333 65.603 10.0127 65.0571 9.77148C64.5155 9.53027 64.0373 9.19385 63.6226 8.76221C63.2078 8.32633 62.8841 7.82064 62.6514 7.24512C62.4186 6.6696 62.3022 6.04541 62.3022 5.37256Z" fill="#3F2AFF"/>
</svg>
